<mxfile host="app.diagrams.net" modified="2022-06-10T16:21:12.848Z" agent="5.0 (Windows NT 10.0; Win64; x64) AppleWebKit/537.36 (KHTML, like Gecko) Chrome/102.0.5005.63 Safari/537.36 Edg/102.0.1245.33" etag="lFYcBVPXhXkja3isYcfw" version="19.0.3" type="github">
  <diagram id="6Tbeg6fiVKVev9_hLxLQ" name="Page-1">
    <mxGraphModel dx="1185" dy="628" grid="1" gridSize="10" guides="1" tooltips="1" connect="1" arrows="1" fold="1" page="1" pageScale="1" pageWidth="827" pageHeight="1169" math="0" shadow="0">
      <root>
        <mxCell id="0" />
        <mxCell id="1" parent="0" />
        <mxCell id="T1TRoeOnjynByPeJNpTR-21" style="edgeStyle=orthogonalEdgeStyle;rounded=0;orthogonalLoop=1;jettySize=auto;html=1;" edge="1" parent="1" source="T1TRoeOnjynByPeJNpTR-1">
          <mxGeometry relative="1" as="geometry">
            <mxPoint x="330.0000000000001" y="410" as="targetPoint" />
          </mxGeometry>
        </mxCell>
        <mxCell id="T1TRoeOnjynByPeJNpTR-1" value="" style="rounded=1;whiteSpace=wrap;html=1;fillColor=#dae8fc;strokeColor=#6c8ebf;" vertex="1" parent="1">
          <mxGeometry x="180" y="360" width="80" height="100" as="geometry" />
        </mxCell>
        <mxCell id="T1TRoeOnjynByPeJNpTR-2" value="" style="rounded=1;whiteSpace=wrap;html=1;fillColor=#d5e8d4;strokeColor=#82b366;" vertex="1" parent="1">
          <mxGeometry x="330" y="360" width="196" height="285" as="geometry" />
        </mxCell>
        <mxCell id="T1TRoeOnjynByPeJNpTR-3" value="&lt;a style=&quot;font-family: Arial, Helvetica, sans-serif; text-align: start; background-color: rgb(255, 255, 255);&quot; href=&quot;https://docs.oracle.com/javase/specs/jvms/se8/html/jvms-2.html#jvms-2.5&quot;&gt;Run-Time Data Areas&lt;/a&gt;&lt;br&gt;JVM 运行时数据区" style="rounded=1;whiteSpace=wrap;html=1;fillColor=#ffe6cc;strokeColor=#d79b00;" vertex="1" parent="1">
          <mxGeometry x="262" y="700" width="120" height="60" as="geometry" />
        </mxCell>
        <mxCell id="T1TRoeOnjynByPeJNpTR-4" value="Execution Engine&lt;br&gt;执行引擎" style="rounded=1;whiteSpace=wrap;html=1;fillColor=#fff2cc;strokeColor=#d6b656;" vertex="1" parent="1">
          <mxGeometry x="142" y="815" width="120" height="60" as="geometry" />
        </mxCell>
        <mxCell id="T1TRoeOnjynByPeJNpTR-5" value="Java Native Interface&lt;br&gt;本地库接口" style="rounded=1;whiteSpace=wrap;html=1;fillColor=#f8cecc;strokeColor=#b85450;" vertex="1" parent="1">
          <mxGeometry x="318" y="815" width="120" height="60" as="geometry" />
        </mxCell>
        <mxCell id="T1TRoeOnjynByPeJNpTR-6" value="Class File&lt;br&gt;类文件" style="text;html=1;strokeColor=none;fillColor=none;align=center;verticalAlign=middle;whiteSpace=wrap;rounded=0;" vertex="1" parent="1">
          <mxGeometry x="190" y="365" width="60" height="30" as="geometry" />
        </mxCell>
        <mxCell id="T1TRoeOnjynByPeJNpTR-7" value="A.class" style="rounded=0;whiteSpace=wrap;html=1;" vertex="1" parent="1">
          <mxGeometry x="195" y="395" width="50" height="20" as="geometry" />
        </mxCell>
        <mxCell id="T1TRoeOnjynByPeJNpTR-8" value="B.class" style="rounded=0;whiteSpace=wrap;html=1;" vertex="1" parent="1">
          <mxGeometry x="195" y="415" width="50" height="20" as="geometry" />
        </mxCell>
        <mxCell id="T1TRoeOnjynByPeJNpTR-9" value="*.class" style="rounded=0;whiteSpace=wrap;html=1;" vertex="1" parent="1">
          <mxGeometry x="195" y="435" width="50" height="20" as="geometry" />
        </mxCell>
        <mxCell id="T1TRoeOnjynByPeJNpTR-17" style="edgeStyle=orthogonalEdgeStyle;rounded=0;orthogonalLoop=1;jettySize=auto;html=1;entryX=0;entryY=0.5;entryDx=0;entryDy=0;" edge="1" parent="1" source="T1TRoeOnjynByPeJNpTR-11" target="T1TRoeOnjynByPeJNpTR-1">
          <mxGeometry relative="1" as="geometry" />
        </mxCell>
        <mxCell id="T1TRoeOnjynByPeJNpTR-11" value="" style="rounded=1;whiteSpace=wrap;html=1;fillColor=#f8cecc;strokeColor=#b85450;" vertex="1" parent="1">
          <mxGeometry x="40" y="360" width="80" height="100" as="geometry" />
        </mxCell>
        <mxCell id="T1TRoeOnjynByPeJNpTR-12" value="源代码" style="text;html=1;strokeColor=none;fillColor=none;align=center;verticalAlign=middle;whiteSpace=wrap;rounded=0;" vertex="1" parent="1">
          <mxGeometry x="50" y="365" width="60" height="30" as="geometry" />
        </mxCell>
        <mxCell id="T1TRoeOnjynByPeJNpTR-13" value="A.java" style="rounded=0;whiteSpace=wrap;html=1;" vertex="1" parent="1">
          <mxGeometry x="55" y="395" width="50" height="20" as="geometry" />
        </mxCell>
        <mxCell id="T1TRoeOnjynByPeJNpTR-14" value="B.java" style="rounded=0;whiteSpace=wrap;html=1;" vertex="1" parent="1">
          <mxGeometry x="55" y="415" width="50" height="20" as="geometry" />
        </mxCell>
        <mxCell id="T1TRoeOnjynByPeJNpTR-15" value="*.java" style="rounded=0;whiteSpace=wrap;html=1;" vertex="1" parent="1">
          <mxGeometry x="55" y="435" width="50" height="20" as="geometry" />
        </mxCell>
        <mxCell id="T1TRoeOnjynByPeJNpTR-19" value="javac" style="text;html=1;strokeColor=none;fillColor=none;align=center;verticalAlign=middle;whiteSpace=wrap;rounded=0;" vertex="1" parent="1">
          <mxGeometry x="120" y="385" width="60" height="30" as="geometry" />
        </mxCell>
        <mxCell id="T1TRoeOnjynByPeJNpTR-23" value="java" style="text;html=1;strokeColor=none;fillColor=none;align=center;verticalAlign=middle;whiteSpace=wrap;rounded=0;" vertex="1" parent="1">
          <mxGeometry x="260" y="385" width="60" height="30" as="geometry" />
        </mxCell>
        <mxCell id="T1TRoeOnjynByPeJNpTR-24" value="ClassLoader&lt;br&gt;类加载子系统" style="text;html=1;strokeColor=none;fillColor=none;align=center;verticalAlign=middle;whiteSpace=wrap;rounded=0;" vertex="1" parent="1">
          <mxGeometry x="383" y="365" width="80" height="30" as="geometry" />
        </mxCell>
        <mxCell id="T1TRoeOnjynByPeJNpTR-25" value="Loading 加载" style="rounded=0;whiteSpace=wrap;html=1;" vertex="1" parent="1">
          <mxGeometry x="346" y="400" width="160" height="30" as="geometry" />
        </mxCell>
        <mxCell id="T1TRoeOnjynByPeJNpTR-26" value="" style="rounded=0;whiteSpace=wrap;html=1;" vertex="1" parent="1">
          <mxGeometry x="346" y="430" width="160" height="175" as="geometry" />
        </mxCell>
        <mxCell id="T1TRoeOnjynByPeJNpTR-27" value="Initialization 初始化" style="rounded=0;whiteSpace=wrap;html=1;" vertex="1" parent="1">
          <mxGeometry x="346" y="600" width="160" height="30" as="geometry" />
        </mxCell>
        <mxCell id="T1TRoeOnjynByPeJNpTR-29" value="Linking 链接" style="text;html=1;strokeColor=none;fillColor=none;align=center;verticalAlign=middle;whiteSpace=wrap;rounded=0;" vertex="1" parent="1">
          <mxGeometry x="383" y="430" width="80" height="30" as="geometry" />
        </mxCell>
        <mxCell id="T1TRoeOnjynByPeJNpTR-30" value="Verification 验证" style="rounded=0;whiteSpace=wrap;html=1;" vertex="1" parent="1">
          <mxGeometry x="356" y="460" width="140" height="25" as="geometry" />
        </mxCell>
        <mxCell id="T1TRoeOnjynByPeJNpTR-31" value="Preparation 准备" style="rounded=0;whiteSpace=wrap;html=1;" vertex="1" parent="1">
          <mxGeometry x="356" y="485" width="140" height="25" as="geometry" />
        </mxCell>
        <mxCell id="T1TRoeOnjynByPeJNpTR-32" value="Resolution 解析" style="rounded=0;whiteSpace=wrap;html=1;" vertex="1" parent="1">
          <mxGeometry x="356" y="510" width="140" height="25" as="geometry" />
        </mxCell>
        <mxCell id="T1TRoeOnjynByPeJNpTR-33" value="Access Control 访问控制" style="rounded=0;whiteSpace=wrap;html=1;" vertex="1" parent="1">
          <mxGeometry x="356" y="535" width="140" height="25" as="geometry" />
        </mxCell>
        <mxCell id="T1TRoeOnjynByPeJNpTR-34" value="Overriding 覆盖" style="rounded=0;whiteSpace=wrap;html=1;" vertex="1" parent="1">
          <mxGeometry x="356" y="560" width="140" height="25" as="geometry" />
        </mxCell>
      </root>
    </mxGraphModel>
  </diagram>
</mxfile>
